<?xml version="1.0" encoding="utf-8"?>
<!-- Generator: Adobe Illustrator 23.0.0, SVG Export Plug-In . SVG Version: 6.00 Build 0)  -->
<svg version="1.1" id="Lager_1" xmlns="http://www.w3.org/2000/svg" xmlns:xlink="http://www.w3.org/1999/xlink" x="0px" y="0px"
	 viewBox="0 0 313.9 93.43" style="enable-background:new 0 0 313.9 93.43;" xml:space="preserve">
<style type="text/css">
	.st0{fill:#6ACCBA;}
	.st1{fill:#0D2C38;}
</style>
<g>
	<path class="st0" d="M30.02,59.12c-2.73,3.24-6.77,5.07-11,5H5.31c-2.4,0-3.88-1.41-4.32-4.33C0.33,55.45,0,51.07,0.02,46.69
		c-0.12-4.38,0.21-8.76,1-13.07c0.54-2.92,2.06-4.32,4.32-4.32h13.68c4.2-0.08,8.22,1.69,11,4.84c2.27,2.7,7,7.34,7,12.53
		S32.32,56.52,30.02,59.12z M92.25,33.62c0.67,4.32,1.01,8.69,1,13.07c0.06,4.38-0.27,8.75-1,13.07c-0.54,2.92-2.05,4.33-4.43,4.33
		h-23.8v23.92c0,2.4-1.4,3.89-4.32,4.32c-4.32,0.71-8.69,1.07-13.07,1.08c-4.38,0.11-8.76-0.26-13.07-1.08
		c-2.91-0.54-4.21-1.94-4.21-4.32v-1.56c0.03-8.11,3.02-15.94,8.41-22c4.32-4.75,8.75-9.72,8.75-17.72s-4.43-13-8.75-17.82
		C32.32,22.8,29.31,14.9,29.3,6.72v-1.3c0-2.48,1.3-3.89,4.21-4.43c4.33-0.61,8.7-0.94,13.07-0.98c4.38-0.06,8.75,0.27,13.07,1
		c2.92,0.63,4.37,2,4.37,4.41V29.3h23.83c2.48,0,3.89,1.4,4.43,4.32H92.25z"/>
	<path class="st1" d="M172.23,84.29c-5,0-6.27-0.32-7.67-2.7l-19.12-30.9c-3.46,3.57-6.92,7.13-10.37,10.48v20.2
		c0,1.3-0.43,2.06-1.3,2.4c-1.51,0.43-3.07,0.61-4.64,0.54c-1.61,0.1-3.22-0.08-4.76-0.54c-0.86-0.32-1.2-1.08-1.2-2.4V11.58
		c0-1.3,0.33-2.05,1.2-2.4c1.51-0.43,3.08-0.61,4.65-0.54c1.6-0.09,3.21,0.09,4.75,0.54c0.87,0.32,1.3,1.08,1.3,2.4v34.56
		c10.67-10.79,20.35-22.5,28.95-35c1.4-2.06,3-2.49,8.1-2.49c5.94,0,6.81,0.65,5,3.35c-7.19,10.6-15.12,20.67-23.73,30.15
		l24.38,38.8C179.47,83.75,176.33,84.29,172.23,84.29z"/>
	<path class="st1" d="M239.64,84.29c-4.54,0-6.6-0.22-7.88-2.4l-16.85-27.44h-12.34v26.92c0,1.3-0.43,2.06-1.29,2.4
		c-1.51,0.43-3.08,0.61-4.65,0.54c-1.6,0.1-3.21-0.08-4.75-0.54c-0.87-0.32-1.2-1.08-1.2-2.4V13.09c0-3,1.51-4.43,4.43-4.43h22.58
		c17.06,0,26.46,8.54,26.46,23c0,12-7.24,19.12-17.29,21.6l17.73,27.44C246.56,83.53,243.53,84.29,239.64,84.29z M202.57,44.1h14.91
		c9.4,0,14.58-4.75,14.58-12.42s-5.18-12.67-14.58-12.67h-14.91V44.1z"/>
	<path class="st1" d="M313.11,12.23c-10.37,19.12-19.09,33.27-25.17,42.57v26.57c0,1.3-0.44,2.06-1.3,2.4
		c-1.51,0.43-3.08,0.61-4.65,0.54c-1.6,0.1-3.21-0.08-4.75-0.54c-0.86-0.32-1.2-1.08-1.2-2.4V55.14c-6-9.42-15.11-23.46-25.37-42.91
		c-1.51-2.92-0.87-3.57,5.18-3.57c5.19,0,6.7,0.54,7.89,2.92c5.28,11.08,11.42,21.74,18.36,31.87
		c6.71-10.23,12.77-20.88,18.15-31.87c1.2-2.4,2.7-2.92,7.8-2.92C314.21,8.66,314.73,9.2,313.11,12.23z"/>
</g>
</svg>
