<?xml version="1.0" encoding="utf-8"?>
<!-- Generator: Adobe Illustrator 23.0.3, SVG Export Plug-In . SVG Version: 6.00 Build 0)  -->
<svg version="1.1" id="Lager_1" xmlns="http://www.w3.org/2000/svg" xmlns:xlink="http://www.w3.org/1999/xlink" x="0px" y="0px"
	 viewBox="0 0 841.89 595.28" style="enable-background:new 0 0 841.89 595.28;" xml:space="preserve">
<style type="text/css">
	.st0{fill:#FF5C28;}
</style>
<g>
	<g>
		<g>
			<g>
				<path d="M137.8,407.94c4.88,2.95,14.98,6.27,22.81,6.27c8.01,0,11.31-2.61,11.31-6.97c0-4.53-2.61-6.62-12.36-9.92
					c-17.76-5.92-24.54-15.5-24.37-25.59c0-16.01,13.58-28.02,34.64-28.02c9.92,0,18.63,2.44,23.85,5.05l-4.53,18.28
					c-3.83-2.09-11.32-4.88-18.46-4.88c-6.43,0-10.09,2.61-10.09,6.79c0,4.18,3.3,6.27,13.74,9.92
					c16.19,5.57,22.81,13.92,22.99,26.28c0,16.01-12.36,27.67-36.73,27.67c-11.14,0-21.07-2.61-27.5-6.09L137.8,407.94z"/>
				<path d="M239.06,322.82v22.97h18.97v19.5h-18.97v30.8c0,10.27,2.61,14.97,10.44,14.97c3.65,0,5.4-0.17,7.83-0.7l0.17,20.03
					c-3.3,1.22-9.75,2.26-17.06,2.26c-8.53,0-15.66-2.95-20.02-7.31c-4.88-5.05-7.31-13.23-7.31-25.24v-34.81v-19.5v-15.84
					L239.06,322.82z"/>
				<path d="M356.55,387.4c0,31.15-22.11,45.43-44.91,45.43c-24.89,0-44.04-16.36-44.04-43.86c0-27.67,18.09-45.26,45.61-45.26
					C339.14,343.7,356.55,361.63,356.55,387.4z M294.93,388.27c0,14.62,6.1,25.59,17.41,25.59c10.44,0,16.89-10.27,16.89-25.77
					c0-12.53-4.88-25.41-16.89-25.41C299.81,362.68,294.93,375.73,294.93,388.27z"/>
				<path d="M372.92,373.82c0-12.53-0.17-20.71-0.7-28.02h22.64l1.04,15.67h0.69c4.35-12.53,14.63-17.76,22.99-17.76
					c2.43,0,3.65,0.17,5.56,0.52v24.89c-2.08-0.35-4.18-0.7-7.13-0.7c-9.75,0-16.36,5.23-18.1,13.4c-0.35,1.75-0.52,3.84-0.52,5.93
					v43.16h-26.47V373.82z"/>
				<path d="M462.04,345.79l12.71,41.96c1.4,4.87,3.13,11.31,4.18,15.84h0.7c1.05-4.7,2.43-10.97,3.65-16.01l10.61-41.78h28.2
					l-19.84,56.05c-12.18,33.94-20.37,47.34-29.93,55.87c-9.05,8.01-18.81,10.97-25.42,11.66l-5.75-22.28
					c3.32-0.69,7.49-2.26,11.49-4.53c4-2.08,8.53-6.43,10.97-10.61c0.87-1.4,1.39-2.79,1.39-3.83c0-1.05-0.18-2.26-1.04-4.35
					l-31.34-77.99H462.04z"/>
				<path d="M562.84,322.82v22.97h18.97v19.5h-18.97v30.8c0,10.27,2.61,14.97,10.44,14.97c3.65,0,5.4-0.17,7.83-0.7l0.17,20.03
					c-3.3,1.22-9.75,2.26-17.06,2.26c-8.52,0-15.66-2.95-20.02-7.31c-4.87-5.05-7.31-13.23-7.31-25.24v-34.81v-19.5v-15.84
					L562.84,322.82z"/>
				<path d="M616.63,396.8c0.68,10.97,11.66,16.19,24.02,16.19c9.05,0,16.36-1.22,23.5-3.65l3.48,17.93
					c-8.71,3.65-19.32,5.39-30.8,5.39c-28.9,0-45.44-16.7-45.44-43.34c0-21.59,13.4-45.44,42.99-45.44
					c27.5,0,37.95,21.42,37.95,42.47c0,4.53-0.52,8.53-0.87,10.45H616.63z M647.78,378.69c0-6.44-2.78-17.23-14.96-17.23
					c-11.15,0-15.67,10.26-16.36,17.23H647.78z"/>
			</g>
		</g>
		<g>
			<polygon points="688.17,430.91 714.63,430.91 714.63,311.39 688.17,318.68 			"/>
		</g>
	</g>
</g>
<path class="st0" d="M510.15,209.32c7.45-40.8-17.41-77.3-56.33-89.42c-69.11-21.52-118.09,41.8-117.53,105.62
	c0.46,51.57,11.51,85.85,11.51,85.87c-0.49-1.53,13.06-8.67,14.62-9.47c5.31-2.73,10.87-4.95,16.54-6.83
	c11.65-3.87,23.72-6.32,35.67-9.05c37.41-8.55,77.6-24.67,91.9-63.49C508.14,218.19,509.34,213.76,510.15,209.32z"/>
</svg>
