<svg width="24" height="24" xmlns="http://www.w3.org/2000/svg" xmlns:svg="http://www.w3.org/2000/svg">
 <g class="layer">
  <title>Layer 1</title>
  <path fill="white" id="svg_2" d="m8.60399,18l12.39601,0l0,-2l-12.39601,0l0,2zm0,-5l12.39601,0l0,-2l-12.39601,0l0,2zm0,-7l0,2l12.39601,0l0,-2l-12.39601,0z"/>
  <path id="svg_1" fill="none" d="m0,0l24,0l0,24l-24,0l0,-24z"/>
  <path fill="white" id="svg_3" d="m3.17684,18.0523l2.55791,0l0,-2l-2.55791,0l0,2zm0,-5l2.55791,0l0,-2l-2.55791,0l0,2zm0,-7l0,2l2.55791,0l0,-2l-2.55791,0z"/>
 </g>
</svg>