<svg id="Layer_1" data-name="Layer 1" xmlns="http://www.w3.org/2000/svg" viewBox="0 0 386.91 256.91"><title>Studs logo</title><path class="cls-1" d="M386.91 256.91H0V0h386.91zM6.91 250H380V6.91H6.91z"/><path class="cls-1" d="M120 88.49h-7.34v-1.66a7.84 7.84 0 0 0-1.19-4.36 4.39 4.39 0 0 0-4-1.84 4.82 4.82 0 0 0-2.48.58 4.26 4.26 0 0 0-1.51 1.48 6.17 6.17 0 0 0-.76 2.09 13.86 13.86 0 0 0-.22 2.48 25.36 25.36 0 0 0 .11 2.56 4.52 4.52 0 0 0 .54 1.8 4.12 4.12 0 0 0 1.28 1.38 11.45 11.45 0 0 0 2.27 1.15l5.62 2.23a14 14 0 0 1 4 2.2 8.93 8.93 0 0 1 2.34 3 12.53 12.53 0 0 1 1.12 3.89 39 39 0 0 1 .29 5 26.37 26.37 0 0 1-.65 6 12.67 12.67 0 0 1-2.12 4.75 10.2 10.2 0 0 1-3.92 3.13 14 14 0 0 1-6 1.15 13.09 13.09 0 0 1-5-.94 11.83 11.83 0 0 1-6.59-6.41 12 12 0 0 1-1-4.82v-2.74h7.34v2.3a6 6 0 0 0 1.19 3.64 4.63 4.63 0 0 0 4 1.62 6.44 6.44 0 0 0 2.92-.54 3.71 3.71 0 0 0 1.58-1.51 6.22 6.22 0 0 0 .68-2.41q.14-1.44.14-3.17a31.12 31.12 0 0 0-.14-3.31 5.27 5.27 0 0 0-.61-2.09 3.74 3.74 0 0 0-1.3-1.3 17.39 17.39 0 0 0-2.2-1.08l-5.26-2.16q-4.75-1.94-6.37-5.15a17.7 17.7 0 0 1-1.62-8 18.6 18.6 0 0 1 .86-5.57 12.76 12.76 0 0 1 2.34-4.46 11.17 11.17 0 0 1 3.92-3 12.92 12.92 0 0 1 5.54-1.12 12.19 12.19 0 0 1 5 1 12.46 12.46 0 0 1 3.87 2.72 11.85 11.85 0 0 1 2.48 3.71 10.75 10.75 0 0 1 .86 4.21zM292.09 88.49h-7.34v-1.66a7.84 7.84 0 0 0-1.19-4.36 4.39 4.39 0 0 0-4-1.84 4.82 4.82 0 0 0-2.48.58 4.26 4.26 0 0 0-1.51 1.48 6.17 6.17 0 0 0-.76 2.09 13.86 13.86 0 0 0-.22 2.48 25.36 25.36 0 0 0 .11 2.56 4.52 4.52 0 0 0 .54 1.8 4.12 4.12 0 0 0 1.27 1.38 11.45 11.45 0 0 0 2.27 1.15l5.62 2.23a14 14 0 0 1 4 2.2 8.93 8.93 0 0 1 2.34 3 12.53 12.53 0 0 1 1.12 3.89 39 39 0 0 1 .29 5 26.37 26.37 0 0 1-.65 6 12.67 12.67 0 0 1-2.12 4.75 10.2 10.2 0 0 1-3.92 3.13 14 14 0 0 1-6 1.15 13.09 13.09 0 0 1-5-.94 11.83 11.83 0 0 1-6.59-6.41 12 12 0 0 1-1-4.82v-2.74h7.34v2.3a6 6 0 0 0 1.19 3.64 4.63 4.63 0 0 0 4 1.62 6.44 6.44 0 0 0 2.92-.54 3.71 3.71 0 0 0 1.58-1.51 6.22 6.22 0 0 0 .68-2.41q.14-1.44.14-3.17a31.12 31.12 0 0 0-.14-3.31A5.27 5.27 0 0 0 284 105a3.74 3.74 0 0 0-1.3-1.3 17.39 17.39 0 0 0-2.2-1.08l-5.26-2.16q-4.75-1.94-6.37-5.15a17.7 17.7 0 0 1-1.62-8 18.6 18.6 0 0 1 .79-5.47 12.76 12.76 0 0 1 2.34-4.46 11.17 11.17 0 0 1 3.92-3 12.92 12.92 0 0 1 5.54-1.12 12.19 12.19 0 0 1 5 1 12.46 12.46 0 0 1 3.91 2.74 11.85 11.85 0 0 1 2.48 3.71 10.75 10.75 0 0 1 .86 4.21zM205.26 98.94a5.81 5.81 0 0 1-1.58-1.66 10.27 10.27 0 0 1-1.22-2.77 14.35 14.35 0 0 1-.5-4.07V73.73h-7.34v16.94a14.1 14.1 0 0 0 .5 3.84 10.27 10.27 0 0 0 1.22 2.77 5.81 5.81 0 0 0 1.58 1.66 4.44 4.44 0 0 0 1.66.72v.14a4.76 4.76 0 0 0-1.66.68 5.36 5.36 0 0 0-1.58 1.62 10.2 10.2 0 0 0-1.22 2.81 14.78 14.78 0 0 0-.5 3.94v3.9a5.5 5.5 0 0 1-1.3 4 4.7 4.7 0 0 1-6.48 0 5.5 5.5 0 0 1-1.3-4v-3.81a14.88 14.88 0 0 1 .5-4 10.2 10.2 0 0 1 1.22-2.81 5.36 5.36 0 0 1 1.58-1.62 4.76 4.76 0 0 1 1.66-.68v-.14a4.44 4.44 0 0 1-1.66-.72 5.81 5.81 0 0 1-1.58-1.66 10.27 10.27 0 0 1-1.26-2.8 14.2 14.2 0 0 1-.5-3.92V73.73h-7.34v16.71a14.35 14.35 0 0 0 .5 4.07 10.27 10.27 0 0 0 1.22 2.77 5.81 5.81 0 0 0 1.58 1.66 4.44 4.44 0 0 0 1.66.72v.14a4.76 4.76 0 0 0-1.66.68 5.36 5.36 0 0 0-1.58 1.62 10.2 10.2 0 0 0-1.22 2.81 15.05 15.05 0 0 0-.5 4.18v4.38a11.63 11.63 0 0 0 .94 4.68 12 12 0 0 0 6.34 6.34 11.81 11.81 0 0 0 9.22 0 12 12 0 0 0 6.34-6.34 11.65 11.65 0 0 0 .94-4.68v-4.38a15.05 15.05 0 0 1 .5-4.18 10.2 10.2 0 0 1 1.22-2.81 5.36 5.36 0 0 1 1.58-1.62 4.76 4.76 0 0 1 1.66-.68v-.14a4.44 4.44 0 0 1-1.64-.72zM160.55 80.64v-6.91h-24.33v6.91h8.5v9.85a14.31 14.31 0 0 0 .5 4 10.27 10.27 0 0 0 1.22 2.77 5.81 5.81 0 0 0 1.56 1.68 4.44 4.44 0 0 0 1.66.72v.14a4.76 4.76 0 0 0-1.66.68 5.36 5.36 0 0 0-1.58 1.62 10.2 10.2 0 0 0-1.22 2.81 15 15 0 0 0-.5 4.13V125h7.34v-16.9a13.77 13.77 0 0 1 .48-3.22 10.2 10.2 0 0 1 1.22-2.81 5.36 5.36 0 0 1 1.58-1.62 4.76 4.76 0 0 1 1.66-.68v-.14a4.44 4.44 0 0 1-1.66-.72 5.81 5.81 0 0 1-1.58-1.66 10.27 10.27 0 0 1-1.22-2.77 13.17 13.17 0 0 1-.48-3.14v-10.7zM250.32 98.94a5.81 5.81 0 0 1-1.58-1.66 10.27 10.27 0 0 1-1.22-2.77 13.86 13.86 0 0 1-.49-3.64V87q0-6.26-3.31-9.76t-9.58-3.49h-10.88v17.84a12.81 12.81 0 0 0 .47 2.92 10.27 10.27 0 0 0 1.27 2.77 5.81 5.81 0 0 0 1.58 1.66 4.44 4.44 0 0 0 1.66.72v.14a4.76 4.76 0 0 0-1.66.68 5.36 5.36 0 0 0-1.58 1.62 10.2 10.2 0 0 0-1.22 2.81 13.39 13.39 0 0 0-.47 3V125h10.22q6.55 0 10-3.42T247 111v-2.3a14.52 14.52 0 0 1 .49-3.73 10.2 10.2 0 0 1 1.22-2.81 5.36 5.36 0 0 1 1.58-1.62 4.76 4.76 0 0 1 1.71-.74v-.14a4.44 4.44 0 0 1-1.68-.72zm-5.72.83a4.76 4.76 0 0 0-1.66.68 5.36 5.36 0 0 0-1.58 1.62 10.2 10.2 0 0 0-1.22 2.81 13.2 13.2 0 0 0-.46 2.81v4a7.5 7.5 0 0 1-1.3 4.86q-1.3 1.55-4.39 1.55h-3.38v-10.74a12.82 12.82 0 0 1 .43-2.49 10.2 10.2 0 0 1 1.22-2.81 5.36 5.36 0 0 1 1.58-1.62 4.76 4.76 0 0 1 1.66-.68v-.14a4.44 4.44 0 0 1-1.66-.72 5.81 5.81 0 0 1-1.58-1.66 10.27 10.27 0 0 1-1.26-2.77 12.28 12.28 0 0 1-.43-2.42V80.64H234q3.24 0 4.46 1.66a7.76 7.76 0 0 1 1.22 4.7v4.76a12.63 12.63 0 0 0 .46 2.74 10.27 10.27 0 0 0 1.22 2.77 5.81 5.81 0 0 0 1.58 1.66 4.44 4.44 0 0 0 1.66.72zM94.82 141.97H292.1v6.91H94.82zM170.53 180.62v2h-10.7v-2.16l7.11-5.31a3.61 3.61 0 0 0 1.08-1.48 2.47 2.47 0 0 0 .18-1.46 2.19 2.19 0 0 0-1.13-1.6 3.81 3.81 0 0 0-1.84-.49 5.19 5.19 0 0 0-2.27.45 1.9 1.9 0 0 0-1.1 1.69l-1.91-.61a4 4 0 0 1 .58-1.51 3.87 3.87 0 0 1 1.55-1.33 7.2 7.2 0 0 1 3.15-.67 5.73 5.73 0 0 1 2.83.76 4.14 4.14 0 0 1 2.09 2.93 4.35 4.35 0 0 1-.29 2.59 5.57 5.57 0 0 1-1.67 2.27l-5.28 3.92zM185.67 182.79a4.78 4.78 0 0 1-2.36-.63 6 6 0 0 1-1.82-1.62 8.9 8.9 0 0 1 0-10.19 5.94 5.94 0 0 1 1.82-1.62 4.69 4.69 0 0 1 4.7 0 5.79 5.79 0 0 1 1.84 1.62 8.9 8.9 0 0 1 0 10.19 5.8 5.8 0 0 1-1.84 1.62 4.76 4.76 0 0 1-2.34.63zm0-12.71a3.28 3.28 0 0 0-2.59 1.46 6 6 0 0 0-.88 1.73 7.48 7.48 0 0 0 0 4.36 6 6 0 0 0 .88 1.73 3.28 3.28 0 0 0 2.59 1.46 3.33 3.33 0 0 0 2.59-1.46 6 6 0 0 0 .86-1.73 7.11 7.11 0 0 0 0-4.36 6 6 0 0 0-.86-1.73 3.33 3.33 0 0 0-2.59-1.47zM206.71 168.44v14.17h-2v-11.42l-2.54 2.41-1.39-1.42 3.78-3.75zM227.07 168.45v1.46l-7.44 12.69h-2.3l7-12.17h-8.3v-2z"/></svg>
