<?xml version="1.0" standalone="no"?>
<!DOCTYPE svg PUBLIC "-//W3C//DTD SVG 20010904//EN"
 "http://www.w3.org/TR/2001/REC-SVG-20010904/DTD/svg10.dtd">
<svg version="1.0" xmlns="http://www.w3.org/2000/svg"
 width="1000.000000pt" height="1000.000000pt" viewBox="0 0 1000.000000 1000.000000"
 preserveAspectRatio="xMidYMid meet">
<metadata>
Created by potrace 1.14, written by Peter Selinger 2001-2017
</metadata>
<g transform="translate(0.000000,1000.000000) scale(0.100000,-0.100000)"
fill="#000000" stroke="none">
<path d="M4719 9996 c-2 -2 -49 -6 -104 -10 -55 -3 -116 -8 -135 -11 -19 -2
-57 -7 -85 -10 -51 -6 -68 -9 -145 -20 -121 -18 -136 -20 -255 -45 -55 -12
-111 -24 -125 -26 -39 -8 -207 -53 -285 -76 -38 -12 -74 -22 -80 -24 -37 -8
-246 -83 -380 -137 -1196 -482 -2177 -1430 -2700 -2612 -14 -33 -30 -69 -36
-80 -29 -63 -132 -349 -167 -465 -71 -234 -134 -503 -157 -665 -4 -22 -11 -69
-16 -105 -6 -36 -13 -87 -15 -115 -3 -27 -7 -61 -9 -74 -28 -159 -27 -820 0
-1043 3 -18 7 -55 10 -83 4 -27 8 -62 10 -76 3 -14 7 -43 10 -64 10 -85 18
-126 46 -265 170 -827 549 -1600 1106 -2251 125 -146 385 -406 532 -532 504
-431 1081 -756 1710 -963 100 -33 369 -108 421 -118 14 -2 59 -12 100 -21 77
-17 89 -19 150 -29 19 -3 46 -8 59 -11 14 -2 45 -7 70 -10 25 -3 55 -7 66 -9
12 -2 48 -7 80 -11 33 -4 71 -8 85 -10 189 -27 900 -27 1037 -1 10 2 47 7 83
11 36 4 72 9 81 10 9 2 39 6 67 10 47 6 281 48 327 59 280 65 560 149 720 216
11 5 56 23 100 40 220 88 539 251 735 375 374 237 615 430 922 737 397 399
698 823 952 1343 186 382 325 798 406 1220 15 83 31 173 34 200 4 28 9 57 11
65 2 8 7 44 10 80 4 36 8 81 11 100 26 224 25 941 -1 1023 -2 6 -6 41 -9 77
-7 75 -10 95 -36 250 -144 850 -498 1632 -1044 2310 -60 75 -77 94 -190 219
-89 100 -280 287 -381 375 -49 43 -103 91 -120 105 -50 44 -275 214 -360 272
-397 271 -808 476 -1245 622 -127 42 -334 103 -381 112 -11 2 -28 6 -37 9 -9
3 -28 7 -42 10 -14 3 -56 12 -95 21 -72 15 -337 60 -415 69 -51 6 -145 16
-205 22 -51 5 -691 14 -696 10z"/>
</g>
</svg>
