<?xml version="1.0" standalone="no"?>
<!DOCTYPE svg PUBLIC "-//W3C//DTD SVG 20010904//EN"
 "http://www.w3.org/TR/2001/REC-SVG-20010904/DTD/svg10.dtd">
<svg version="1.0" xmlns="http://www.w3.org/2000/svg"
 width="1024.000000pt" height="1024.000000pt" viewBox="0 0 1024.000000 1024.000000"
 preserveAspectRatio="xMidYMid meet">
<metadata>
Created by potrace 1.11, written by Peter Selinger 2001-2013
</metadata>
<g transform="translate(0.000000,1024.000000) scale(0.100000,-0.100000)"
fill="#000000" stroke="none">
<path d="M0 5120 l0 -5120 5120 0 5120 0 0 5120 0 5120 -5120 0 -5120 0 0
-5120z m6055 3806 c400 -106 768 -289 1073 -536 200 -161 422 -414 542 -616
57 -96 113 -205 108 -209 -2 -2 -208 -123 -458 -271 -250 -147 -529 -311 -620
-364 -412 -242 -460 -270 -466 -270 -4 0 -39 34 -77 75 -182 198 -484 366
-735 410 -231 41 -483 -7 -606 -115 -84 -74 -132 -200 -124 -322 12 -165 136
-302 385 -427 117 -58 282 -123 638 -249 610 -216 909 -348 1201 -532 286
-179 531 -413 694 -662 219 -332 332 -718 347 -1188 8 -253 -19 -473 -84 -685
l-18 -60 -255 -130 c-140 -71 -458 -233 -705 -359 -248 -126 -531 -270 -630
-321 -99 -51 -483 -246 -852 -434 l-673 -342 -77 16 c-816 177 -1533 630
-2146 1353 -113 133 -278 355 -270 363 5 3 195 117 423 252 228 135 586 347
795 471 208 124 382 226 385 226 3 0 24 -33 48 -72 110 -187 301 -405 456
-522 293 -220 579 -306 928 -278 251 20 401 74 500 181 72 77 98 153 98 285 0
196 -61 337 -210 487 -184 186 -394 293 -1025 526 -373 137 -548 209 -760 313
-304 149 -502 281 -688 459 -329 315 -507 683 -579 1196 -18 125 -16 537 3
634 l14 74 1640 838 c902 461 1642 838 1645 838 3 1 64 -15 135 -33z"/>
</g>
</svg>
