<?xml version="1.0" encoding="UTF-8"?>
<svg width="111px" height="35px" viewBox="0 0 111 35" version="1.1" xmlns="http://www.w3.org/2000/svg" xmlns:xlink="http://www.w3.org/1999/xlink">
    <!-- Generator: Sketch 48.1 (47250) - http://www.bohemiancoding.com/sketch -->
    <title>White</title>
    <desc>Created with Sketch.</desc>
    <defs></defs>
    <g id="Page-1" stroke="none" stroke-width="1" fill="none" fill-rule="evenodd">
        <g id="White" fill="#FBFBFA">
            <g id="STUDS">
                <path d="M110.102076,29.7002555 C110.479424,28.8483648 110.68,27.9302112 110.68,26.992 C110.68,18.4 100.168,19.744 100.168,16.816 C100.168,15.856 100.936,15.424 101.992,15.424 C103.288,15.424 104.584,16.336 105.112,17.056 L110.104,14.128 C108.808,11.296 105.544,9.424 101.944,9.424 C97.24,9.424 93.448,12.4 93.448,16.192 C93.448,24.784 104.008,22.528 104.008,26.896 C104.008,27.952 103.144,28.384 101.608,28.384 C99.736,28.384 98.248,26.992 97.48,25.552 L92.296,28.624 C94.9001636,32.2954438 98.1118403,33.9545006 101.120547,34.2765732 L110.102076,29.7002555 Z M33.88,27.232 C31.912,28.384 28.696,27.712 28.696,24.544 L28.696,15.808 L34.504,15.808 L34.504,9.808 L28.696,9.808 L28.696,0.4 L22.024,3.76 L22.024,24.544 C22.024,31.024 26.296,34.288 30.856,34.384 C32.92,34.384 34.84,34 36.184,32.368 L33.88,27.232 Z M61,9.808 L54.328,9.808 L54.328,21.088 C54.328,25.408 51.304,28.336 48.52,28.336 C46.744,28.336 45.256,27.424 45.256,24.016 L45.256,9.808 L38.584,9.808 L38.584,24.496 C38.584,31.936 43.096,34.384 46.552,34.384 C50.248,34.384 52.984,31.6 54.328,29.488 L54.328,34 L61,34 L61,9.808 Z M87.976,0.4 L87.976,34 L81.304,34 L81.304,31.84 C79.288,33.52 76.456,34.384 74.248,34.384 C68.584,34.384 64.84,29.584 64.84,22 C64.84,14.416 68.68,9.424 74.488,9.424 C76.84,9.424 79.528,10.384 81.304,12.016 L81.304,0.4 L87.976,0.4 Z M76.888,29.008 C79.96,29.008 82.024,26.224 82.024,22 C82.024,17.776 79.96,14.992 76.888,14.992 C73.672,14.992 71.512,17.776 71.512,22 C71.512,26.224 73.672,29.008 76.888,29.008 Z M12.1468687,9.65675394 C14.8354948,10.2405241 17.1003912,11.8824845 18.128,14.128 L13.136,17.056 C12.608,16.336 11.312,15.424 10.016,15.424 C8.96,15.424 8.192,15.856 8.192,16.816 C8.192,19.744 18.704,18.4 18.704,26.992 C18.704,30.832 15.344,34.336 10.256,34.336 C6.944,34.336 3.248,32.752 0.32,28.624 L5.504,25.552 C6.272,26.992 7.76,28.384 9.632,28.384 C11.168,28.384 12.032,27.952 12.032,26.896 C12.032,22.528 1.472,24.784 1.472,16.192 C1.472,15.7964613 1.51325813,15.409801 1.59250585,15.0344704 L12.1468687,9.65675394 Z"></path>
            </g>
        </g>
    </g>
</svg>