<svg id="Layer_1" data-name="Layer 1" xmlns="http://www.w3.org/2000/svg" viewBox="0 0 197.28 52.13"><title>Artboard 6</title><path class="cls-1" d="M25.2,15.19H17.86V13.54a7.84,7.84,0,0,0-1.19-4.36,4.39,4.39,0,0,0-4-1.84,4.82,4.82,0,0,0-2.48.58A4.26,4.26,0,0,0,8.68,9.4a6.17,6.17,0,0,0-.76,2.09A13.86,13.86,0,0,0,7.7,14a25.36,25.36,0,0,0,.11,2.56,4.52,4.52,0,0,0,.54,1.8,4.12,4.12,0,0,0,1.26,1.33,11.45,11.45,0,0,0,2.27,1.15L17.5,23a14,14,0,0,1,4,2.2,8.93,8.93,0,0,1,2.34,3,12.53,12.53,0,0,1,1.12,3.89,39,39,0,0,1,.29,5,26.37,26.37,0,0,1-.65,6,12.67,12.67,0,0,1-2.12,4.75A10.2,10.2,0,0,1,18.5,51a14,14,0,0,1-6,1.15,13.09,13.09,0,0,1-5-.94A11.83,11.83,0,0,1,1,44.78,12,12,0,0,1,0,40V37.22H7.34v2.3a6,6,0,0,0,1.19,3.64,4.63,4.63,0,0,0,4,1.62,6.44,6.44,0,0,0,2.92-.54A3.71,3.71,0,0,0,17,42.73a6.22,6.22,0,0,0,.68-2.41q.14-1.44.14-3.17a31.12,31.12,0,0,0-.14-3.31,5.27,5.27,0,0,0-.61-2.09,3.74,3.74,0,0,0-1.3-1.3,17.39,17.39,0,0,0-2.2-1.08L8.35,27.22Q3.6,25.27,2,22.07A17.7,17.7,0,0,1,.36,14a18.6,18.6,0,0,1,.79-5.47A12.76,12.76,0,0,1,3.49,4.1a11.17,11.17,0,0,1,3.92-3A12.92,12.92,0,0,1,13,0a12.19,12.19,0,0,1,5,1,12.46,12.46,0,0,1,3.89,2.66,11.85,11.85,0,0,1,2.48,3.71,10.75,10.75,0,0,1,.86,4.21Z"/><path class="cls-1" d="M197.28,15.19h-7.34V13.54a7.84,7.84,0,0,0-1.19-4.36,4.39,4.39,0,0,0-4-1.84,4.82,4.82,0,0,0-2.48.58,4.26,4.26,0,0,0-1.51,1.48,6.17,6.17,0,0,0-.76,2.09,13.86,13.86,0,0,0-.22,2.48,25.36,25.36,0,0,0,.11,2.56,4.52,4.52,0,0,0,.54,1.8,4.12,4.12,0,0,0,1.26,1.33A11.45,11.45,0,0,0,184,20.81L189.57,23a14,14,0,0,1,4,2.2,8.93,8.93,0,0,1,2.34,3A12.53,12.53,0,0,1,197,32.08a39,39,0,0,1,.29,5,26.37,26.37,0,0,1-.65,6,12.67,12.67,0,0,1-2.12,4.75A10.2,10.2,0,0,1,190.58,51a14,14,0,0,1-6,1.15,13.09,13.09,0,0,1-5-.94A11.83,11.83,0,0,1,173,44.78a12,12,0,0,1-1-4.82V37.22h7.34v2.3a6,6,0,0,0,1.19,3.64,4.63,4.63,0,0,0,4,1.62,6.44,6.44,0,0,0,2.92-.54,3.71,3.71,0,0,0,1.58-1.51,6.22,6.22,0,0,0,.68-2.41q.14-1.44.14-3.17a31.12,31.12,0,0,0-.14-3.31,5.27,5.27,0,0,0-.61-2.09,3.74,3.74,0,0,0-1.3-1.3,17.39,17.39,0,0,0-2.2-1.08l-5.26-2.16q-4.75-1.94-6.37-5.15a17.7,17.7,0,0,1-1.62-8,18.6,18.6,0,0,1,.79-5.47,12.76,12.76,0,0,1,2.34-4.46,11.17,11.17,0,0,1,3.92-3A12.92,12.92,0,0,1,185,0a12.19,12.19,0,0,1,5,1,12.46,12.46,0,0,1,3.89,2.66,11.85,11.85,0,0,1,2.48,3.71,10.75,10.75,0,0,1,.86,4.21Z"/><path class="cls-1" d="M110.45,25.64A5.81,5.81,0,0,1,108.86,24a10.27,10.27,0,0,1-1.22-2.77,14.35,14.35,0,0,1-.5-4.07V.43H99.79V17.37a14.1,14.1,0,0,0,.5,3.84A10.27,10.27,0,0,0,101.51,24a5.81,5.81,0,0,0,1.58,1.66,4.44,4.44,0,0,0,1.66.72v.14a4.76,4.76,0,0,0-1.66.68,5.36,5.36,0,0,0-1.58,1.62,10.2,10.2,0,0,0-1.22,2.81,14.78,14.78,0,0,0-.5,3.94v3.9a5.5,5.5,0,0,1-1.3,4,4.7,4.7,0,0,1-6.48,0,5.5,5.5,0,0,1-1.3-4V35.64a14.88,14.88,0,0,1,.5-4,10.2,10.2,0,0,1,1.22-2.81A5.36,5.36,0,0,1,94,27.19a4.76,4.76,0,0,1,1.66-.68v-.14A4.44,4.44,0,0,1,94,25.64,5.81,5.81,0,0,1,92.44,24a10.27,10.27,0,0,1-1.22-2.77,14.2,14.2,0,0,1-.5-3.92V.43H83.37V17.15a14.35,14.35,0,0,0,.5,4.07A10.27,10.27,0,0,0,85.1,24a5.81,5.81,0,0,0,1.58,1.66,4.44,4.44,0,0,0,1.66.72v.14a4.76,4.76,0,0,0-1.66.68,5.36,5.36,0,0,0-1.58,1.62,10.2,10.2,0,0,0-1.22,2.81,15.05,15.05,0,0,0-.5,4.18v4.38a11.63,11.63,0,0,0,.94,4.68,12,12,0,0,0,6.34,6.34,11.81,11.81,0,0,0,9.22,0,12,12,0,0,0,6.34-6.34,11.65,11.65,0,0,0,.94-4.68V35.79a15.05,15.05,0,0,1,.5-4.18,10.2,10.2,0,0,1,1.22-2.81,5.36,5.36,0,0,1,1.58-1.62,4.76,4.76,0,0,1,1.66-.68v-.14A4.44,4.44,0,0,1,110.45,25.64Z"/><path class="cls-1" d="M65.74,7.34V.43H41.4V7.34h8.5v9.85a14.31,14.31,0,0,0,.5,4A10.27,10.27,0,0,0,51.62,24a5.81,5.81,0,0,0,1.58,1.66,4.44,4.44,0,0,0,1.66.72v.14a4.76,4.76,0,0,0-1.66.68,5.36,5.36,0,0,0-1.58,1.62,10.2,10.2,0,0,0-1.22,2.81,15,15,0,0,0-.5,4.13V51.7h7.34V34.8a13.77,13.77,0,0,1,.48-3.22,10.2,10.2,0,0,1,1.22-2.81,5.36,5.36,0,0,1,1.58-1.62,4.76,4.76,0,0,1,1.66-.68v-.14a4.44,4.44,0,0,1-1.66-.72,5.81,5.81,0,0,1-1.58-1.66,10.27,10.27,0,0,1-1.22-2.77A13.17,13.17,0,0,1,57.24,18V7.34Z"/><path class="cls-1" d="M155.51,25.64A5.81,5.81,0,0,1,153.92,24a10.27,10.27,0,0,1-1.22-2.77,13.86,13.86,0,0,1-.49-3.64v-3.9q0-6.26-3.31-9.76T139.32.43H128.45V18.3a12.81,12.81,0,0,0,.47,2.92A10.27,10.27,0,0,0,130.14,24a5.81,5.81,0,0,0,1.58,1.66,4.44,4.44,0,0,0,1.66.72v.14a4.76,4.76,0,0,0-1.66.68,5.36,5.36,0,0,0-1.58,1.62,10.2,10.2,0,0,0-1.22,2.81,13.39,13.39,0,0,0-.47,3V51.7h10.22q6.55,0,10-3.42t3.49-10.62v-2.3a14.52,14.52,0,0,1,.49-3.73,10.2,10.2,0,0,1,1.22-2.81,5.36,5.36,0,0,1,1.58-1.62,4.76,4.76,0,0,1,1.66-.68v-.14A4.44,4.44,0,0,1,155.51,25.64Zm-5.72.83a4.76,4.76,0,0,0-1.66.68,5.36,5.36,0,0,0-1.58,1.62,10.2,10.2,0,0,0-1.22,2.81,13.2,13.2,0,0,0-.46,2.81v4a7.5,7.5,0,0,1-1.3,4.86q-1.3,1.55-4.39,1.55h-3.38V34.07a12.82,12.82,0,0,1,.43-2.49,10.2,10.2,0,0,1,1.22-2.81A5.36,5.36,0,0,1,139,27.15a4.76,4.76,0,0,1,1.66-.68v-.14A4.44,4.44,0,0,1,139,25.6a5.81,5.81,0,0,1-1.58-1.66,10.27,10.27,0,0,1-1.22-2.77,12.28,12.28,0,0,1-.43-2.42V7.34h3.38q3.24,0,4.46,1.66a7.76,7.76,0,0,1,1.22,4.68v4.76a12.63,12.63,0,0,0,.46,2.74,10.27,10.27,0,0,0,1.22,2.77,5.81,5.81,0,0,0,1.58,1.66,4.44,4.44,0,0,0,1.66.72Z"/></svg>
