<?xml version="1.0" encoding="UTF-8"?>
<svg width="165px" height="85px" viewBox="0 0 165 85" version="1.1" xmlns="http://www.w3.org/2000/svg" xmlns:xlink="http://www.w3.org/1999/xlink">
    <!-- Generator: Sketch 48.2 (47327) - http://www.bohemiancoding.com/sketch -->
    <title>Black + Frame</title>
    <desc>Created with Sketch.</desc>
    <defs></defs>
    <g id="Page-1" stroke="none" stroke-width="1" fill="none" fill-rule="evenodd">
        <g id="Black-+-Frame">
            <g id="STUDS">
                <rect id="Rectangle-3" stroke="#181519" stroke-width="3" x="1.5" y="1.5" width="162" height="82"></rect>
                <path d="M136.782076,55.3002555 C137.159424,54.4483648 137.36,53.5302112 137.36,52.592 C137.36,44 126.848,45.344 126.848,42.416 C126.848,41.456 127.616,41.024 128.672,41.024 C129.968,41.024 131.264,41.936 131.792,42.656 L136.784,39.728 C135.488,36.896 132.224,35.024 128.624,35.024 C123.92,35.024 120.128,38 120.128,41.792 C120.128,50.384 130.688,48.128 130.688,52.496 C130.688,53.552 129.824,53.984 128.288,53.984 C126.416,53.984 124.928,52.592 124.16,51.152 L118.976,54.224 C121.580164,57.8954438 124.79184,59.5545006 127.800547,59.8765732 L136.782076,55.3002555 Z M60.56,52.832 C58.592,53.984 55.376,53.312 55.376,50.144 L55.376,41.408 L61.184,41.408 L61.184,35.408 L55.376,35.408 L55.376,26 L48.704,29.36 L48.704,50.144 C48.704,56.624 52.976,59.888 57.536,59.984 C59.6,59.984 61.52,59.6 62.864,57.968 L60.56,52.832 Z M87.68,35.408 L81.008,35.408 L81.008,46.688 C81.008,51.008 77.984,53.936 75.2,53.936 C73.424,53.936 71.936,53.024 71.936,49.616 L71.936,35.408 L65.264,35.408 L65.264,50.096 C65.264,57.536 69.776,59.984 73.232,59.984 C76.928,59.984 79.664,57.2 81.008,55.088 L81.008,59.6 L87.68,59.6 L87.68,35.408 Z M114.656,26 L114.656,59.6 L107.984,59.6 L107.984,57.44 C105.968,59.12 103.136,59.984 100.928,59.984 C95.264,59.984 91.52,55.184 91.52,47.6 C91.52,40.016 95.36,35.024 101.168,35.024 C103.52,35.024 106.208,35.984 107.984,37.616 L107.984,26 L114.656,26 Z M103.568,54.608 C106.64,54.608 108.704,51.824 108.704,47.6 C108.704,43.376 106.64,40.592 103.568,40.592 C100.352,40.592 98.192,43.376 98.192,47.6 C98.192,51.824 100.352,54.608 103.568,54.608 Z M38.8268687,35.2567539 C41.5154948,35.8405241 43.7803912,37.4824845 44.808,39.728 L39.816,42.656 C39.288,41.936 37.992,41.024 36.696,41.024 C35.64,41.024 34.872,41.456 34.872,42.416 C34.872,45.344 45.384,44 45.384,52.592 C45.384,56.432 42.024,59.936 36.936,59.936 C33.624,59.936 29.928,58.352 27,54.224 L32.184,51.152 C32.952,52.592 34.44,53.984 36.312,53.984 C37.848,53.984 38.712,53.552 38.712,52.496 C38.712,48.128 28.152,50.384 28.152,41.792 C28.152,41.3964613 28.1932581,41.009801 28.2725059,40.6344704 L38.8268687,35.2567539 Z" fill="#181519"></path>
            </g>
        </g>
    </g>
</svg>