<?xml version="1.0" encoding="UTF-8"?>
<svg width="201px" height="92px" viewBox="0 0 201 92" version="1.1" xmlns="http://www.w3.org/2000/svg" xmlns:xlink="http://www.w3.org/1999/xlink">
    <!-- Generator: Sketch 52.1 (67048) - http://www.bohemiancoding.com/sketch -->
    <title>logo/studs19</title>
    <desc>Created with Sketch.</desc>
    <g id="logo/studs19" stroke="none" stroke-width="1" fill="none" fill-rule="evenodd">
        <path d="M73,76 L73,78 L18,78 L18,76 L73,76 Z M129,76 L184,76 L184,78 L129,78 L129,76 Z M77.16,82.4 C77.16,81.5199956 77.3099985,80.8233359 77.61,80.31 C77.9100015,79.7966641 78.3333306,79.3266688 78.88,78.9 L82.78,75.84 C83.2866692,75.4533314 83.6366657,75.0566687 83.83,74.65 C84.0233343,74.2433313 84.12,73.8200022 84.12,73.38 C84.12,72.8866642 83.9600016,72.4566685 83.64,72.09 C83.3199984,71.7233315 82.8400032,71.54 82.2,71.54 C81.6799974,71.54 81.2500017,71.6566655 80.91,71.89 C80.5699983,72.1233345 80.3200008,72.3999984 80.16,72.72 C79.9999992,73.0400016 79.92,73.3199988 79.92,73.56 C79.92,73.8000012 79.9266666,73.9799994 79.94,74.1 L77.2,74.1 C77.1866666,73.9933328 77.18,73.8666674 77.18,73.72 C77.18,72.9999964 77.3399984,72.2900035 77.66,71.59 C77.9800016,70.8899965 78.5266628,70.2966691 79.3,69.81 C80.0733372,69.3233309 81.0866604,69.08 82.34,69.08 L82.64,69.08 C83.6000048,69.08 84.4233299,69.279998 85.11,69.68 C85.7966701,70.080002 86.3133316,70.6033301 86.66,71.25 C87.0066684,71.8966699 87.18,72.586663 87.18,73.32 C87.18,74.1066706 87.0300015,74.8033303 86.73,75.41 C86.4299985,76.0166697 85.913337,76.6266636 85.18,77.24 C84.3399958,77.9466702 83.3266726,78.7466622 82.14,79.64 C82.006666,79.7466672 81.840001,79.8933324 81.64,80.08 C81.439999,80.2666676 81.34,80.3866664 81.34,80.44 L87.22,80.44 L87.22,83 L77.16,83 L77.16,82.4 Z M99.44,78.4 C99.44,79.2933378 99.2266688,80.106663 98.8,80.84 C98.3733312,81.573337 97.793337,82.1499979 97.06,82.57 C96.326663,82.9900021 95.5200044,83.2 94.64,83.2 L94.06,83.2 C93.1799956,83.2 92.373337,82.9900021 91.64,82.57 C90.906663,82.1499979 90.3300021,81.573337 89.91,80.84 C89.4899979,80.106663 89.28,79.2933378 89.28,78.4 L89.28,73.9 C89.28,73.0066622 89.4899979,72.193337 89.91,71.46 C90.3300021,70.726663 90.906663,70.1466688 91.64,69.72 C92.373337,69.2933312 93.1799956,69.08 94.06,69.08 L94.64,69.08 C95.5200044,69.08 96.326663,69.2933312 97.06,69.72 C97.793337,70.1466688 98.3733312,70.726663 98.8,71.46 C99.2266688,72.193337 99.44,73.0066622 99.44,73.9 L99.44,78.4 Z M96.48,73.56 C96.48,72.959997 96.2766687,72.4533354 95.87,72.04 C95.4633313,71.6266646 94.960003,71.42 94.36,71.42 C93.759997,71.42 93.2566687,71.6266646 92.85,72.04 C92.4433313,72.4533354 92.24,72.959997 92.24,73.56 L92.24,78.72 C92.24,79.320003 92.4433313,79.8266646 92.85,80.24 C93.2566687,80.6533354 93.759997,80.86 94.36,80.86 C94.960003,80.86 95.4633313,80.6533354 95.87,80.24 C96.2766687,79.8266646 96.48,79.320003 96.48,78.72 L96.48,73.56 Z M102.08,80.58 L105.4,80.58 L105.4,72.72 L102.06,72.72 L102.06,70.94 C102.80667,70.8866664 103.653329,70.6966683 104.6,70.37 C105.546671,70.0433317 106.439996,69.646669 107.28,69.18 L108.34,69.18 L108.34,80.58 L111.6,80.58 L111.6,83 L102.08,83 L102.08,80.58 Z M118.82,80.82 C119.166668,80.82 119.506665,80.7266676 119.84,80.54 C120.173335,80.3533324 120.446666,80.1000016 120.66,79.78 C120.873334,79.4599984 120.98,79.1133352 120.98,78.74 L120.98,76.8 C120.619998,77.1866686 120.193336,77.479999 119.7,77.68 C119.206664,77.880001 118.700003,77.98 118.18,77.98 C117.353329,77.98 116.603337,77.8100017 115.93,77.47 C115.256663,77.1299983 114.723335,76.6433365 114.33,76.01 C113.936665,75.3766635 113.74,74.6400042 113.74,73.8 C113.74,72.8533286 113.956664,72.0233369 114.39,71.31 C114.823335,70.5966631 115.416663,70.0466686 116.17,69.66 C116.923337,69.2733314 117.759995,69.08 118.68,69.08 L118.96,69.08 C119.866671,69.08 120.699996,69.2833313 121.46,69.69 C122.220004,70.0966687 122.819998,70.6699963 123.26,71.41 C123.700002,72.1500037 123.92,72.986662 123.92,73.92 L123.92,78.4 C123.92,79.2933378 123.700002,80.106663 123.26,80.84 C122.819998,81.573337 122.22667,82.1499979 121.48,82.57 C120.73333,82.9900021 119.913338,83.2 119.02,83.2 L118.74,83.2 C117.859996,83.2 117.060004,83.0233351 116.34,82.67 C115.619996,82.3166649 115.053335,81.7966701 114.64,81.11 C114.226665,80.4233299 114.02,79.613338 114.02,78.68 L116.78,78.68 C116.78,79.280003 116.969998,79.7866646 117.35,80.2 C117.730002,80.6133354 118.219997,80.82 118.82,80.82 Z M43.320513,49.6286736 C46.053742,48.3697394 48.6469044,46.1716295 51.1,43.0343439 L51.1,36.17 L47.18,36.17 L47.18,26.23 L51.66,26.23 L56.49,14.82 L64.96,14.82 L64.96,26.23 L73.36,26.23 L73.36,36.17 L64.96,36.17 L64.96,49.4 C64.96,51.266676 65.3216631,52.53833 66.045,53.215 C66.768337,53.8916701 67.7366606,54.23 68.95,54.23 C69.5100028,54.23 70.2449954,54.1483342 71.155,53.985 C72.0650045,53.8216659 72.7766641,53.6233345 73.29,53.39 L73.29,53.4044924 C74.8165042,52.7599463 76.2513767,51.9692754 78.12,49.2169481 L78.12,26.23 L91.98,26.23 L91.98,48.63 C91.98,49.7966725 92.341663,50.7883293 93.065,51.605 C93.7883369,52.4216708 94.6633282,52.83 95.69,52.83 C96.7166718,52.83 97.5916631,52.4216708 98.315,51.605 C99.0383369,50.7883293 99.4,49.7966725 99.4,48.63 L99.4,26.23 L113.26,26.23 L113.26,51.64 C113.26,52.5266711 113.469998,53.1799979 113.89,53.6 C114.310002,54.0200021 114.82333,54.23 115.43,54.23 C116.316671,54.23 117.13333,54.0200021 117.88,53.6 L117.88,53.6706405 C118.972925,53.1399561 120.118726,51.9095647 121.317401,49.979466 C120.985799,48.3071482 120.82,46.4806637 120.82,44.5 L120.82,43.73 C120.82,39.7633135 121.414994,36.4150137 122.605,33.685 C123.795006,30.9549864 125.40499,28.9133401 127.435,27.56 C129.46501,26.2066599 131.763321,25.53 134.33,25.53 C138.716689,25.53 141.796658,26.9999853 143.57,29.94 L143.57,11.6 L157.43,11.6 L157.43,43.2707014 C159.794778,38.5741251 163.179663,33.4633679 167.695069,29.9050031 C169.184307,28.5622181 170.965939,27.5355578 173.04,26.825 C175.560013,25.9616624 178.126654,25.53 180.74,25.53 L182.91,25.53 C185.150011,25.53 187.448322,25.8916631 189.805,26.615 C192.161678,27.338337 194.133325,28.4233261 195.72,29.87 C197.306675,31.3166739 198.1,33.0666564 198.1,35.12 C198.1,35.5400021 198.076667,35.9249983 198.03,36.275 C197.983333,36.6250018 197.96,36.8466662 197.96,36.94 L186.48,36.94 C186.48,35.8199944 185.978338,35.0150025 184.975,34.525 C183.971662,34.0349976 182.840006,33.79 181.58,33.79 C178.126649,33.79 176.4,34.4666599 176.4,35.82 C176.4,36.6600042 176.924995,37.2316652 177.975,37.535 C179.025005,37.8383349 180.763321,38.1299986 183.19,38.41 C186.363349,38.7833352 188.988323,39.2499972 191.065,39.81 C193.141677,40.3700028 194.961659,41.454992 196.525,43.065 C198.088341,44.6750081 198.87,47.0199846 198.87,50.1 C198.87,54.4866886 197.271683,57.6833233 194.075,59.69 C190.878317,61.6966767 186.94669,62.7 182.28,62.7 L178.64,62.7 C176.026654,62.7 173.541678,62.2916708 171.185,61.475 C168.828322,60.6583293 166.903341,59.4100084 165.41,57.73 C163.916659,56.0499916 163.17,53.9966788 163.17,51.57 L163.17,50.94 C163.17,50.6599986 163.193333,50.4500007 163.24,50.31 L174.58,50.31 L174.58,50.59 C174.58,51.9433401 175.186661,52.8883307 176.4,53.425 C177.613339,53.9616694 179.013325,54.23 180.6,54.23 C182.000007,54.23 183.34166,54.0900014 184.625,53.81 C185.90834,53.5299986 186.55,52.9466711 186.55,52.06 C186.55,51.1733289 186.013339,50.5550018 184.94,50.205 C183.866661,49.8549983 182.093346,49.4933352 179.62,49.12 C176.633318,48.7466648 174.09001,48.2566697 171.99,47.65 C169.889989,47.0433303 168.081674,45.9350081 166.565,44.325 C166.275979,44.0181928 166.014496,43.6880852 165.780552,43.3346767 C160.85639,50.3702476 158.313886,61.1930691 157.43,61.8189605 L157.43,62 L146.37,62 L145.11,57.87 C142.54332,61.0900161 139.533351,62.7 136.08,62.7 C133.186652,62.7 130.585012,62.0233401 128.275,60.67 C126.385608,59.5630835 124.824038,57.9957012 123.590261,55.9678195 C121.606897,58.3115026 119.627658,60.0795553 117.652544,61.2719776 L117.640864,61.2525546 C116.140072,62.2175228 113.863137,62.7 110.81,62.7 C107.823318,62.7 105.536675,62.2216715 103.95,61.265 C102.363325,60.3083286 101.220004,58.896676 100.52,57.03 C99.7266627,58.2433394 98.4200091,59.4916603 96.6,60.775 C94.7799909,62.0583398 92.7733443,62.7 90.58,62.7 L88.62,62.7 C86.7066571,62.7 84.945008,62.233338 83.335,61.3 C81.7249919,60.366662 80.453338,59.0950081 79.52,57.485 C79.4482872,57.3612954 79.3793295,57.2366956 79.3131268,57.1112006 C77.3656534,59.0875698 75.3397859,60.4683199 73.2355245,61.2534511 C72.1663455,61.7091919 70.6911849,62.0747046 68.81,62.35 C66.8966571,62.6300014 65.2633401,62.77 63.91,62.77 C59.8033128,62.77 56.6416778,62.0233408 54.425,60.53 C52.2083223,59.0366592 51.1,56.4933513 51.1,52.9 L51.1,52.2272717 C46.5293659,57.9213429 38.7980047,61.3296083 27.9059165,62.452068 L28.267375,62.2773874 C26.4155092,62.5591296 24.4130526,62.7 22.26,62.7 C18.5733149,62.7 15.1783488,62.1400056 12.075,61.02 C8.97165115,59.8999944 6.47500945,58.1850116 4.585,55.875 C2.69499055,53.5649885 1.75,50.7066837 1.75,47.3 L1.75,46.46 C1.75,46.0866648 1.7733331,45.8066676 1.82,45.62 L15.4,45.62 C15.3533331,45.7600007 15.33,46.0399979 15.33,46.46 C15.33,47.9066739 15.8316616,49.096662 16.835,50.03 C17.8383384,50.963338 19.506655,51.43 21.84,51.43 C24.4066795,51.43 26.156662,51.1616694 27.09,50.625 C28.023338,50.0883307 28.49,49.353338 28.49,48.42 C28.49,47.2999944 27.8366732,46.4483363 26.53,45.865 C25.2233268,45.2816638 23.170014,44.6866697 20.37,44.08 C16.8233156,43.3333296 13.8716784,42.5050046 11.515,41.595 C9.15832155,40.6849955 7.1166753,39.1916771 5.39,37.115 C3.6633247,35.038323 2.8,32.1800182 2.8,28.54 C2.8,25.273317 3.69832435,22.4966781 5.495,20.21 C7.29167565,17.9233219 9.7299846,16.1966725 12.81,15.03 C15.8900154,13.8633275 19.3433142,13.28 23.17,13.28 C28.8633618,13.28 33.5416483,14.5166543 37.205,16.99 C40.8683517,19.4633457 42.7,23.1266424 42.7,27.98 L42.7,28.82 L29.26,28.82 L29.26,28.54 C29.26,27.1866599 28.7816714,26.0783377 27.825,25.215 C26.8683286,24.3516624 25.4100098,23.92 23.45,23.92 C21.5366571,23.92 20.0900049,24.1883307 19.11,24.725 C18.1299951,25.2616694 17.64,25.9733289 17.64,26.86 C17.64,27.9333387 18.2116609,28.7849969 19.355,29.415 C20.498339,30.0450032 22.1666557,30.593331 24.36,31.06 L30.59,32.46 C39.2700434,34.4200098 43.61,38.9232981 43.61,45.97 C43.61,47.2669964 43.5135045,48.4865538 43.320513,49.6286736 Z M116.64,73.86 C116.64,74.460003 116.843331,74.9533314 117.25,75.34 C117.656669,75.7266686 118.17333,75.92 118.8,75.92 C119.400003,75.92 119.913331,75.7233353 120.34,75.33 C120.766669,74.9366647 120.98,74.4466696 120.98,73.86 L120.98,73.44 C120.98,72.839997 120.773335,72.3466686 120.36,71.96 C119.946665,71.5733314 119.42667,71.38 118.8,71.38 C118.199997,71.38 117.690002,71.5766647 117.27,71.97 C116.849998,72.3633353 116.64,72.8533304 116.64,73.44 L116.64,73.86 Z M139.23,34.28 C138.016661,34.28 136.990004,34.7583286 136.15,35.715 C135.309996,36.6716715 134.89,37.8266599 134.89,39.18 L134.89,49.33 C134.89,50.6833401 135.309996,51.8383286 136.15,52.795 C136.990004,53.7516715 138.016661,54.23 139.23,54.23 C140.443339,54.23 141.469996,53.7516715 142.31,52.795 C143.150004,51.8383286 143.57,50.6833401 143.57,49.33 L143.57,39.18 C143.57,37.8266599 143.150004,36.6716715 142.31,35.715 C141.469996,34.7583286 140.443339,34.28 139.23,34.28 Z" id="Shape" fill="#000000"></path>
    </g>
</svg>