<?xml version="1.0" encoding="UTF-8"?>
<svg width="160px" height="100px" viewBox="0 0 160 100" version="1.1" xmlns="http://www.w3.org/2000/svg" xmlns:xlink="http://www.w3.org/1999/xlink">
    <!-- Generator: Sketch 47.1 (45422) - http://www.bohemiancoding.com/sketch -->
    <title>White + Frame Copy</title>
    <desc>Created with Sketch.</desc>
    <defs></defs>
    <g id="Page-1" stroke="none" stroke-width="1" fill="none" fill-rule="evenodd">
        <g id="White-+-Frame-Copy">
            <g id="STUDS">
                <rect id="Rectangle-3" stroke="#FFFFFF" stroke-width="2.90909091" x="1.45454545" y="1.45454545" width="157.090909" height="97.0909091"></rect>
                <path d="M132.455346,62.4123689 C132.82126,61.5862932 133.015758,60.6959624 133.015758,59.7861818 C133.015758,51.4545455 122.822303,52.7578182 122.822303,49.9185455 C122.822303,48.9876364 123.56703,48.5687273 124.59103,48.5687273 C125.847758,48.5687273 127.104485,49.4530909 127.616485,50.1512727 L132.457212,47.312 C131.200485,44.5658182 128.035394,42.7505455 124.544485,42.7505455 C119.98303,42.7505455 116.305939,45.6363636 116.305939,49.3134545 C116.305939,57.6450909 126.545939,55.4574545 126.545939,59.6930909 C126.545939,60.7170909 125.708121,61.136 124.218667,61.136 C122.403394,61.136 120.960485,59.7861818 120.215758,58.3898182 L115.188848,61.3687273 C117.714098,64.9289152 120.828451,66.5376976 123.745985,66.8500104 L132.455346,62.4123689 L132.455346,62.4123689 Z M58.5430303,60.0189091 C56.6346667,61.136 53.5161212,60.4843636 53.5161212,57.4123636 L53.5161212,48.9410909 L59.1481212,48.9410909 L59.1481212,43.1229091 L53.5161212,43.1229091 L53.5161212,34 L47.046303,37.2581818 L47.046303,57.4123636 C47.046303,63.696 51.1888485,66.8610909 55.6106667,66.9541818 C57.6121212,66.9541818 59.4739394,66.5818182 60.7772121,64.9992727 L58.5430303,60.0189091 Z M84.8412121,43.1229091 L78.3713939,43.1229091 L78.3713939,54.0610909 C78.3713939,58.2501818 75.4390303,61.0894545 72.7393939,61.0894545 C71.0172121,61.0894545 69.574303,60.2050909 69.574303,56.9003636 L69.574303,43.1229091 L63.1044848,43.1229091 L63.1044848,57.3658182 C63.1044848,64.5803636 67.4797576,66.9541818 70.8310303,66.9541818 C74.4150303,66.9541818 77.0681212,64.2545455 78.3713939,62.2065455 L78.3713939,66.5818182 L84.8412121,66.5818182 L84.8412121,43.1229091 Z M110.999758,34 L110.999758,66.5818182 L104.529939,66.5818182 L104.529939,64.4872727 C102.57503,66.1163636 99.8288485,66.9541818 97.6877576,66.9541818 C92.1953939,66.9541818 88.5648485,62.2996364 88.5648485,54.9454545 C88.5648485,47.5912727 92.2884848,42.7505455 97.9204848,42.7505455 C100.201212,42.7505455 102.807758,43.6814545 104.529939,45.264 L104.529939,34 L110.999758,34 Z M100.247758,61.7410909 C103.226667,61.7410909 105.228121,59.0414545 105.228121,54.9454545 C105.228121,50.8494545 103.226667,48.1498182 100.247758,48.1498182 C97.1292121,48.1498182 95.0346667,50.8494545 95.0346667,54.9454545 C95.0346667,59.0414545 97.1292121,61.7410909 100.247758,61.7410909 Z M37.4684787,42.9762462 C40.0756313,43.5423264 42.2718945,45.1345305 43.2683636,47.312 L38.4276364,50.1512727 C37.9156364,49.4530909 36.6589091,48.5687273 35.4021818,48.5687273 C34.3781818,48.5687273 33.6334545,48.9876364 33.6334545,49.9185455 C33.6334545,52.7578182 43.8269091,51.4545455 43.8269091,59.7861818 C43.8269091,63.5098182 40.5687273,66.9076364 35.6349091,66.9076364 C32.4232727,66.9076364 28.8392727,65.3716364 26,61.3687273 L31.0269091,58.3898182 C31.7716364,59.7861818 33.2145455,61.136 35.0298182,61.136 C36.5192727,61.136 37.3570909,60.7170909 37.3570909,59.6930909 C37.3570909,55.4574545 27.1170909,57.6450909 27.1170909,49.3134545 C27.1170909,48.9299019 27.1570988,48.5549585 27.2339451,48.1910016 L37.4684787,42.9762462 L37.4684787,42.9762462 Z" fill="#FFFFFF"></path>
            </g>
        </g>
    </g>
</svg>